<svg xmlns="http://www.w3.org/2000/svg" enable-background="new 0 0 128 128" viewBox="0 0 128 128" id="account-service"><path fill="#3c4652" d="M124.7,55h-0.2c-3.2,0-6.5-0.1-9.7,0c-0.4,0-0.7,0-1-0.1c-1.3-6.6-3.9-12.7-7.5-18.1c0.2-0.3,0.6-0.7,1.1-1.2c2.2-2.2,4.3-4.4,6.6-6.5c-3.9-5.5-8.7-10.2-14.2-14.2c-2.3,2.3-4.7,4.6-6.9,7c-0.3,0.3-0.6,0.5-0.9,0.7c-5.4-3.6-11.5-6.1-18.1-7.4c0-0.2-0.1-0.4-0.1-0.7c0.1-1.7,0-3.5,0-5.2h0c0-1.6,0-3.3,0-4.9v0c-3.2-0.5-6.5-0.8-9.8-0.8c-3.3,0-6.6,0.3-9.8,0.8v0c0.1,1.6,0,3.3,0,4.9h0c0,1.7,0,3.5,0,5.2c0,0.3,0,0.5-0.1,0.7C47.6,16.4,41.5,19,36,22.6c-0.3-0.1-0.6-0.4-0.9-0.7c-2.3-2.4-4.6-4.6-6.9-7C22.8,18.8,18,23.6,14,29.1c2.2,2.1,4.4,4.4,6.6,6.5c0.5,0.5,0.9,0.9,1.1,1.2c-3.6,5.4-6.2,11.5-7.5,18.1c-0.3,0.1-0.6,0.1-1,0.1c-3.2-0.1-6.5,0-9.7,0H3.3c-0.5,3.3-0.8,6.6-0.8,10c0,3.4,0.3,6.7,0.8,10c0.1,0,0.3,0,0.4,0c3.4,0,6.7,0,10.1,0c0.1,0,0.2,0,0.3,0c1.3,6.7,4,12.9,7.7,18.3c-0.1,0.2-0.3,0.3-0.5,0.5c-2.2,2.1-4.4,4.3-6.5,6.5c-0.3,0.3-0.5,0.5-0.7,0.7c3.9,5.4,8.7,10.1,14.1,14c0.1-0.1,0.1-0.1,0.2-0.2c2.3-2.4,4.7-4.7,7-7.1c0.2-0.2,0.3-0.3,0.5-0.4c5.4,3.6,11.6,6.2,18.2,7.5c0.1,0.2,0.1,0.5,0.1,0.9c-0.1,3.3,0,6.5,0,9.8v0.2c3.2,0.5,6.5,0.8,9.8,0.8c3.3,0,6.6-0.3,9.8-0.8v-0.2c0-3.3,0-6.5-0.1-9.8c0-0.3,0-0.6,0.1-0.9c6.6-1.3,12.8-3.9,18.2-7.5c0.2,0.1,0.3,0.3,0.5,0.4c2.3,2.4,4.7,4.7,7,7.1c0.1,0.1,0.1,0.1,0.2,0.2c5.4-3.9,10.2-8.6,14.1-14c-0.2-0.2-0.4-0.4-0.7-0.7c-2.2-2.2-4.3-4.4-6.5-6.5c-0.2-0.2-0.3-0.4-0.5-0.5c3.7-5.5,6.3-11.7,7.7-18.3c0.1,0,0.2,0,0.3,0c3.4,0,6.8,0,10.1,0c0.1,0,0.3,0,0.4,0c0.5-3.3,0.8-6.6,0.8-10C125.5,61.6,125.2,58.2,124.7,55z M38.5,93.9c0,0,0.2-8.3,1-13.2c0.3-1.6,1.3-3,2.8-3.8c4.9-2.4,15.7-6.1,15.7-6.1v-3.5l-0.3-0.2c-2.1-1.6-3.5-3.9-3.9-6.5l-0.1-0.4h-0.3c-1.7,0-3.1-1-3.7-2.5c-0.3-0.6-0.5-1.3-0.5-2.1c0-0.5,0.1-1,0.3-1.5c0.1-0.5,0.4-1,0.8-1.3l1-0.6L51,51.2c-1.8-7.8,4.3-14.9,12.4-15h1.2c8.1,0.2,14.2,7.2,12.4,15l-0.2,1.1l1,0.6c0.4,0.3,0.7,0.8,0.8,1.3c0.2,0.5,0.3,1,0.3,1.5c0,0.7-0.2,1.5-0.5,2.1c-0.6,1.5-2,2.5-3.7,2.5h-0.3l0,0.4c-0.4,2.6-1.8,5-3.9,6.5L70,67.3v3.5c0,0,10.8,3.6,15.7,6.1c1.5,0.7,2.5,2.1,2.8,3.8c0.8,4.9,1,13.2,1,13.2H38.5z"></path></svg>